<svg xmlns="http://www.w3.org/2000/svg" width="135" height="40" fill="none"><rect width="134" height="39" x=".5" y=".5" fill="#0F0F0F" rx="4.5"/><rect width="134" height="39" x=".5" y=".5" stroke="#59595D" rx="4.5"/><path fill="#fff" d="M106.935 30h1.866V17.498h-1.866V30zm16.807-7.998-2.139 5.42h-.064l-2.22-5.42h-2.01l3.33 7.575-1.899 4.214h1.946l5.131-11.789h-2.075zm-10.583 6.578c-.61 0-1.463-.306-1.463-1.062 0-.965 1.062-1.334 1.978-1.334.82 0 1.207.176 1.705.418a2.262 2.262 0 0 1-2.22 1.978zm.226-6.851c-1.351 0-2.75.595-3.329 1.914l1.656.691c.354-.691 1.013-.916 1.705-.916.965 0 1.946.578 1.962 1.608v.128c-.338-.193-1.062-.482-1.946-.482-1.786 0-3.603.98-3.603 2.814 0 1.673 1.464 2.75 3.104 2.75 1.254 0 1.947-.562 2.38-1.222h.065v.966h1.802v-4.794c0-2.22-1.658-3.457-3.796-3.457zm-11.532 1.795h-2.654v-4.285h2.654c1.395 0 2.187 1.154 2.187 2.142 0 .969-.792 2.143-2.187 2.143zm-.048-6.026h-4.472V30H99.2v-4.736h2.606c2.068 0 4.101-1.497 4.101-3.883 0-2.385-2.033-3.883-4.101-3.883zM77.423 28.582c-1.289 0-2.368-1.08-2.368-2.56 0-1.5 1.08-2.595 2.368-2.595 1.273 0 2.272 1.095 2.272 2.594 0 1.482-1 2.561-2.272 2.561zm2.143-5.88H79.5c-.418-.5-1.224-.95-2.239-.95-2.127 0-4.076 1.869-4.076 4.27 0 2.383 1.95 4.236 4.076 4.236 1.015 0 1.82-.451 2.24-.967h.064v.612c0 1.628-.87 2.497-2.272 2.497-1.143 0-1.852-.821-2.142-1.514l-1.627.677c.467 1.127 1.707 2.513 3.77 2.513 2.19 0 4.043-1.289 4.043-4.43v-7.637h-1.772v.693zM82.627 30h1.869V17.498h-1.868V30zm4.624-4.124c-.049-1.644 1.273-2.481 2.223-2.481.741 0 1.37.37 1.58.902l-3.803 1.579zm5.8-1.418c-.355-.95-1.434-2.706-3.642-2.706-2.19 0-4.011 1.723-4.011 4.253 0 2.384 1.805 4.253 4.22 4.253 1.95 0 3.078-1.192 3.545-1.885l-1.45-.967c-.483.71-1.143 1.176-2.094 1.176-.95 0-1.627-.435-2.062-1.289l5.686-2.352-.193-.483zm-45.309-1.401v1.804h4.318c-.129 1.015-.467 1.756-.983 2.271-.628.628-1.611 1.321-3.335 1.321-2.658 0-4.736-2.142-4.736-4.8 0-2.659 2.078-4.801 4.736-4.801 1.434 0 2.481.564 3.255 1.289l1.273-1.273c-1.08-1.031-2.514-1.82-4.528-1.82-3.641 0-6.702 2.964-6.702 6.605 0 3.64 3.06 6.605 6.702 6.605 1.966 0 3.448-.645 4.608-1.853 1.192-1.192 1.563-2.867 1.563-4.221 0-.418-.033-.805-.097-1.127h-6.074zm11.08 5.525c-1.29 0-2.402-1.063-2.402-2.577 0-1.53 1.112-2.578 2.401-2.578 1.289 0 2.4 1.047 2.4 2.578 0 1.514-1.111 2.577-2.4 2.577zm0-6.83c-2.354 0-4.27 1.788-4.27 4.253 0 2.448 1.916 4.253 4.27 4.253 2.351 0 4.268-1.805 4.268-4.253 0-2.465-1.917-4.253-4.269-4.253zm9.312 6.83c-1.288 0-2.4-1.063-2.4-2.577 0-1.53 1.112-2.578 2.4-2.578 1.29 0 2.4 1.047 2.4 2.578 0 1.514-1.11 2.577-2.4 2.577zm0-6.83c-2.352 0-4.269 1.788-4.269 4.253 0 2.448 1.917 4.253 4.27 4.253 2.352 0 4.269-1.805 4.269-4.253 0-2.465-1.917-4.253-4.27-4.253zm-23.657-8.518c-.896 0-1.667-.315-2.289-.937-.622-.622-.937-1.4-.937-2.306 0-.906.315-1.684.937-2.307.622-.622 1.393-.937 2.29-.937.456 0 .883.079 1.29.243.407.164.74.392 1.004.69l.061.071-.699.7-.07-.086a1.733 1.733 0 0 0-.676-.501 2.282 2.282 0 0 0-.91-.177 2.16 2.16 0 0 0-1.593.65v.001c-.428.445-.643.986-.643 1.653s.215 1.208.643 1.653a2.16 2.16 0 0 0 1.593.651c.578 0 1.056-.161 1.432-.48.35-.298.56-.7.634-1.212h-2.166v-.922h3.102l.014.085c.025.162.043.318.043.468 0 .86-.262 1.563-.777 2.08-.58.615-1.344.92-2.282.92zm26.942 0c-.898 0-1.66-.315-2.273-.937-.615-.615-.92-1.394-.92-2.306 0-.913.305-1.692.92-2.307.613-.622 1.375-.937 2.273-.937.897 0 1.659.315 2.273.946.614.615.92 1.393.92 2.298 0 .912-.305 1.691-.92 2.306-.614.622-1.384.937-2.273.937zM48.425 13.1V6.881h3.714v.94h-2.74V9.53h2.471v.922h-2.472v1.709h2.74v.939h-3.713zm5.987 0V7.822H52.73v-.94h4.336v.94h-1.681V13.1h-.973zm5.426 0V6.881h.973V13.1h-.973zm3.423 0V7.822h-1.68v-.94h4.335v.94h-1.681V13.1h-.974zm12.215 0V6.881h1.097l2.794 4.473-.024-.85V6.881h.973V13.1h-.963l-2.928-4.698.024.848v3.85h-.973zm-4.057-.805c.632 0 1.147-.215 1.568-.65v-.001c.427-.427.636-.976.636-1.653 0-.676-.21-1.227-.635-1.653l-.001-.001c-.42-.435-.936-.65-1.568-.65s-1.148.214-1.576.65c-.419.436-.627.978-.627 1.654 0 .677.208 1.217.627 1.654.428.435.944.65 1.576.65z"/><path fill="#EA4335" d="m20.714 19.423-10.647 11.3.002.007a2.875 2.875 0 0 0 4.236 1.734l.034-.02 11.984-6.915-5.61-6.106z"/><path fill="#FBBC04" d="m31.486 17.5-.01-.008-5.174-2.999-5.83 5.187 5.85 5.848 5.146-2.97a2.877 2.877 0 0 0 .018-5.059z"/><path fill="#4285F4" d="M10.067 9.277a2.818 2.818 0 0 0-.097.74v19.967c0 .256.033.504.098.74L21.08 19.713 10.067 9.277z"/><path fill="#34A853" d="m20.793 20 5.51-5.509-11.97-6.94a2.882 2.882 0 0 0-4.265 1.722v.004L20.792 20z"/></svg>